#!OML:ASF F:\VICON\USERDATA\INSTALL\rory3\rory3.ASF
:FULLY-SPECIFIED
:DEGREES
19
root -0.6419752836725413 17.683203670834967 -13.638689815899408 -1.4434251713410928 6.873759667474905 -3.886074780741488
lfemur -23.75149373524815 -3.501824276782206 -21.614797986682635
ltibia 40.95960054694761
lfoot -11.770493448433276 -10.71139304339339
ltoes -1.5494360793424402
rfemur -7.638074019281032 -2.109067861983896 27.04960007971789
rtibia 96.09898219985286
rfoot 21.07318365347097 -13.163587860044919
rtoes 16.75528769957672
lowerback 16.497285641361255 1.0708664147480071 2.768765984589477
upperback -0.0810312943617934 2.0672155086433897 1.1520133925428229
thorax -9.314909306352055 0.891517930953763 -0.8248256193138291
lowerneck -18.957094112938254 -5.346233447203205 -1.6914257790619123
upperneck 15.242904182475762 -7.620282112706145 4.051618636700847
head 8.059292829929596 -3.3001633774943206 0.6760134575698125
lclavicle -9.152774339847445e-16 -7.746725139183434e-16
lhumerus -61.08468459399016 -12.545188881431436 100.14098192457654
lradius 104.07298986979939
lwrist 33.45058829796125
lhand -25.856206542779212 0.7974985326453723
lfingers 7.125020000000057
lthumb 0.6846004567303206 30.776111507333685
rclavicle -9.152774339847445e-16 -7.746725139183434e-16
rhumerus -48.454291764413675 14.403487431183397 -101.75298540677781
rradius 104.67298970995884
rwrist -7.877907043840358
rhand -19.72159002324048 40.73908757964961
rfingers 7.125020000000057
rthumb 6.6085599770313035 10.86218764952286
20
root -0.646633214923163 17.474908519565 -12.685890228701599 -1.1420260252044043 6.63226031454453 -2.519608718467231
lfemur -22.372294499709515 -3.797763519914433 -23.298895461057292
ltibia 45.080998918858235
lfoot -17.15248957867879 -7.689816900995311
ltoes 2.0965100648138675
rfemur -13.30770089562047 -3.7861038889492034 23.902404932258893
rtibia 102.40697984232864
rfoot 20.997883706007745 -9.952804036240925
rtoes 15.041689265824779
lowerback 16.84358442334759 1.0303266853965054 0.9001367565176699
upperback 0.15046710622511406 1.6215373637770742 0.8064185324506169
thorax -9.309279333844964 0.7562972140732036 -0.036899578045832326
lowerneck -19.70269059368662 -5.254084256292822 -1.3674709888108474
upperneck 15.087904476578366 -7.553942498628933 3.9693790697038733
head 8.117182437396256 -3.2486040926277644 0.5904328734601846
lclavicle -9.152775159745956e-16 -7.746724997894612e-16
lhumerus -56.908787526497164 -14.232586984702488 100.1769818753987
lradius 104.52998976175591
lwrist 34.90128727926725
lhand -24.961009341551467 0.056301515164708604
lfingers 7.125020000000057
lthumb 1.5492606572760297 30.030412193893127
rclavicle -9.152775159745956e-16 -7.746724997894612e-16
rhumerus -49.23729116922881 13.324788076073016 -101.86498530302357
rradius 101.6549904347325
rwrist -6.520558172247547
rhand -22.246575434986305 37.44369128166227
rfingers 7.125020000000057
rthumb 4.170694571628387 7.504821422413291
21
root -0.3398289713831347 17.161489988353075 -3.043507631840294 1.5643641215809065 5.315004869777146 2.352303959071849
lfemur -19.917627126528515 -2.3405996771496413 -27.794221381334467
ltibia 47.02153598333614
lfoot -21.431581709332615 -2.3836576991096914
ltoes 2.2179824785140037
rfemur -19.023223724406705 -4.145786338012275 19.323399917273736
rtibia 106.95959122181256
rfoot 14.452741764290737 -7.89371315432631
rtoes 17.18175535488851
lowerback 17.427453264026393 1.4748443489492062 -2.3115776847124048
upperback -0.11524356606537955 1.5135168167177653 -0.776054019928121
thorax -9.79270113802853 0.8055400125933986 0.27012594618251196
lowerneck -19.835976236225918 -5.342144922943642 -1.895771109466174
upperneck 12.865052926888552 -7.508214379579746 4.433977236871155
head 7.517298166756105 -3.2600207871445575 0.901094293292886
lclavicle -1.039932314698844e-15 -8.711930871966681e-16
lhumerus -47.62596125154822 -14.542256978136761 98.02399422261857
lradius 107.52055686359125
lwrist 33.45359644158674
lhand -25.78913800606827 5.4407766281478915
lfingers 7.125020000000057
lthumb 0.749074663501289 35.33789614247139
rclavicle -1.039932314698844e-15 -8.711930871966681e-16
rhumerus -44.7832353826521 9.024205098770814 -98.6409420639124
rradius 100.4968687961852
rwrist -13.48797627834411
rhand -20.46013778099522 35.94365895909583
rfingers 7.125020000000057
rthumb 5.894393359029133 8.737854068120857
22
root -0.3115483993265008 17.01488855945976 -4.057693650313825 2.4328516191437877 4.720996528617457 2.9371440992565643
lfemur -18.209757397162882 -2.1095629210342004 -28.20064405634413
ltibia 49.895573341132355
lfoot -25.863787161077127 1.5202438282601802
ltoes 0.13596108169423538
rfemur -25.081985389822382 -4.510119541210823 18.204772076935996
rtibia 113.21663390351097
rfoot 11.247078435881662 -7.124237449632317
rtoes 15.686871284843932
lowerback 17.97227145818886 1.4347688755835624 -3.097204194446843
upperback -0.08652084749255134 1.2996880239787723 -0.9519858510670096
thorax -10.036860689163701 0.7328901947114146 0.6431646027306807
lowerneck -20.17062583708296 -5.23276481069807 -1.9709643450469994
upperneck 12.038191599115475 -7.353613770775583 4.725938336050161
head 7.304884257282324 -3.168107632331523 1.0262992495033942
lclavicle -7.945373802583811e-16 -6.811830869180731e-16
lhumerus -43.73134376980873 -15.093265988287174 97.9112219118533
lradius 108.13117526118485
lwrist 33.65570243317584
lhand -25.438813517702187 5.286391664515627
lfingers 7.125020000000057
lthumb 1.0873841206987789 35.18673191466671
rclavicle -7.945373802583811e-16 -6.811830869180731e-16
rhumerus -46.6591683190556 8.581448312498116 -98.97226554128933
rradius 101.14740716881506
rwrist -13.85544922182364
rhand -20.269366580606896 35.758920201166404
rfingers 7.125020000000057
rthumb 6.078186934297755 9.18777247409944
23
root -0.3189487407977204 16.98117224092359 -3.727277117309802 2.9309344869412235 4.23265992200192 3.0573845260375774
lfemur -15.661437715205142 -2.146838363715724 -28.434690123126842
ltibia 50.00241020205574
lfoot -27.490835185135673 3.862660824102279
ltoes -2.6861062000754448
rfemur -31.359684162500677 -5.177471393183184 17.704180130998243
rtibia 115.48927984843823
rfoot 8.91031514497533 -6.631083042292112
rtoes 12.678726396145276
lowerback 18.156230865765316 1.1896885474091192 -3.526161619663865
upperback -0.14660697133070882 0.896809088639108 -0.8976330627116755
thorax -10.231171499209836 0.5670320094838306 1.018365662690935
lowerneck -20.33738213234573 -5.033901654639111 -1.9515697674584467
upperneck 11.733747725170009 -7.09117046896402 4.745132985369219
head 7.21929559768376 -3.030584124854736 1.0588623286129346
lclavicle -9.664246864719933e-16 -8.142759325684597e-16
lhumerus -40.27965826491296 -16.412949519129903 97.8985146756426
lradius 108.5363685692707
lwrist 33.539083462661615
lhand -25.171772964575844 4.789701643651101
lfingers 7.125020000000057
lthumb 1.3452689127492408 34.694221132960216
rclavicle -9.664246864719933e-16 -8.142759325684597e-16
rhumerus -48.7182952321909 8.371017596806293 -99.41385276361143
rradius 101.40208017978392
rwrist -14.92482828364873
rhand -20.119817141106935 35.2974535549782
rfingers 7.125020000000057
rthumb 6.222475537597893 8.962924595129563
24
root -0.33484869368969056 16.99348582478914 -2.9518593565612274 3.313289646080657 3.8354082378247836 2.9725621797073027
lfemur -12.790914456516191 -2.37610915437852 -28.551244398762115
ltibia 48.54935732349285
lfoot -27.558657905774318 4.323401267026354
ltoes -6.9736731678829695
rfemur -37.15822513951222 -5.4383891511411715 17.69409737384196
rtibia 114.55800808142388
rfoot 6.754237822065544 -6.498539386817115
rtoes 9.614342808705558
lowerback 18.042029290610863 0.793118274248836 -3.864966202495167
upperback -0.25422321588767627 0.3223362827009373 -0.7625859754201463
thorax -10.354871586268416 0.3158227495706284 1.3908876030124744
lowerneck -20.410755367427836 -4.803803046143632 -1.9560735464886323
upperneck 11.446279196067504 -6.784889065861728 4.616531276427111
head 7.105833721913608 -2.881175810647228 1.056986214240868
lclavicle -1.5346622954292992e-15 -1.2542639612223718e-15
lhumerus -37.59312400036795 -17.165803384819625 97.3777973314887
lradius 108.3290684781002
lwrist 33.692641011511284
lhand -24.940655326464668 3.8160840542833476
lfingers 7.125020000000055
lthumb 1.56844555514149 33.723386517275834
rclavicle -1.5346622954292992e-15 -1.2542639612223718e-15
rhumerus -51.400930115982725 7.572749053791743 -99.69163558332492
rradius 101.06596592543417
rwrist -16.181528484100678
rhand -20.054664354204053 34.53474986535036
rfingers 7.125020000000055
rthumb 6.28560611054778 8.640194742552481
25
root -0.3325780141953391 17.096854581381102 -1.45460727639699 3.7655307216117473 3.583434105759586 2.623357247706983
lfemur -9.121796410883709 -2.3366251199464037 -27.952593985113722
ltibia 46.78892126791898
lfoot -25.294454503114796 3.708598571241988
ltoes -12.744229434286362
rfemur -41.45409936176615 -5.537074457766586 18.577910385726977
rtibia 113.20941550213217
rfoot 4.311996727519686 -6.234384073688226
rtoes 7.682569080963746
lowerback 17.849238527335743 0.3125444796586284 -3.7325296582318375
upperback -0.41261766586198007 -0.27797184375634354 -0.3965905815072246
thorax -10.39381935996865 0.0393381491112223 1.8751640179524567
lowerneck -20.35690631828835 -4.493884464588969 -1.9211648392321847
upperneck 11.457003071385724 -6.342479833768884 4.439544564273056
head 7.06979567811328 -2.684625222145529 1.0421423835016816
lclavicle -1.347559690790504e-15 -1.1093898808096775e-15
lhumerus -35.06165458239581 -16.91677705280285 96.96300128447412
lradius 109.87216052035973
lwrist 34.40219437205979
lhand -24.783926588947978 3.4512087088626853
lfingers 7.125020000000056
lthumb 1.719706641787252 33.35559199083015
rclavicle -1.347559690790504e-15 -1.1093898808096775e-15
rhumerus -53.78427631151532 8.08048882796547 -99.70928759229938
rradius 103.11251030956566
rwrist -16.891976803492533
rhand -19.886716057390483 35.12695524698748
rfingers 7.125020000000056
rthumb 6.448185513168453 8.456793406155633
26
root -0.30806655337671973 17.268816284766714 -0.6441195856752611 4.226082016691054 3.1752587691831256 2.26357468132475
lfemur -4.8155172825989405 -2.045245897487752 -27.304258445176018
ltibia 44.6555627710323
lfoot -20.873058299242896 2.1367340430303114
ltoes -18.246474563670112
rfemur -44.90365423536741 -5.238577132035687 19.834825892965554
rtibia 109.23484662067014
rfoot 2.951526014894888 -5.696336337176602
rtoes 6.162065687875037
lowerback 17.55836238716001 -0.154110685422146 -3.590699689549698
upperback -0.5724429147050303 -0.847349914678318 0.03478064248785495
thorax -10.365570845026317 -0.22244735017018025 2.445297292597411
lowerneck -20.262192917447976 -4.115211716551544 -1.8133666480309965
upperneck 11.630845582773002 -5.8327971137866355 4.267373384517773
head 7.076637235312753 -2.448834169849551 1.0243284750706736
lclavicle -9.646142367927895e-16 -8.128741147429307e-16
lhumerus -32.84794859261224 -16.37892485726173 96.66076123466956
lradius 112.42987598802057
lwrist 36.07089923906786
lhand -24.615320064376455 2.8097379102481472
lfingers 7.125020000000057
lthumb 1.8824198066523292 32.70902215190057
rclavicle -9.646142367927895e-16 -8.128741147429307e-16
rhumerus -56.28996455350441 9.011445220839054 -99.4642622653437
rradius 105.94731932886526
rwrist -17.572286266785955
rhand -19.680694378571904 35.15482596684934
rfingers 7.125020000000057
rthumb 6.647368215292387 8.74621117820841
